<svg xmlns="http://www.w3.org/2000/svg" viewBox="0 0 200 102"><defs><style>.cls-1{font-size:104.23px;font-family:Quicksand-Bold, Quicksand;font-weight:700;letter-spacing:-0.05em;}</style></defs><g id="Capa_2" data-name="Capa 2"><text class="cls-1" transform="translate(2.5 88.78)"><tspan xml:space="preserve"> EST</tspan></text><path d="M31,5.32h0S30.19,1.8,25.16.56C20.88-.49,18.69,2,18.69,2a19.76,19.76,0,0,0-3.24,4.16A18.35,18.35,0,0,0,14,9.89a39.08,39.08,0,0,0-1.32,7.4l-.13,1.61-.36,7.46-.32,4.78c0,.34,0,.67,0,1V80.76l.36,7.77A8.65,8.65,0,0,1,11.86,91c-.36.94-1.34.37-1.34.37h0A5.75,5.75,0,0,0,0,94.59a5.71,5.71,0,0,0,.89,3.06h0A6.23,6.23,0,0,0,4.31,101a11.41,11.41,0,0,0,6.11.31c2.16-.62,6.11-3.11,7.19-7.15.89-3.32,1.77-7.69,2.06-9.14a7.9,7.9,0,0,0,.13-1c.11-1.26.4-4.73.69-7s.36-8.09.36-8.09l.35-9.63L20.85,24.5l-1-14.17h0A6.45,6.45,0,0,0,25,12.68a6,6,0,0,0,6.29-5.75A5.08,5.08,0,0,0,31,5.32Z"/></g></svg>