<svg xmlns="http://www.w3.org/2000/svg" viewBox="0 0 436 129"><defs><style>.cls-1{font-size:70px;font-family:Quicksand-Bold, Quicksand;font-weight:700;letter-spacing:-0.05em;}.cls-1,.cls-2,.cls-3{fill:#fff;}.cls-2{font-size:22.32px;font-family:Itim-Regular, Itim;}</style></defs><g id="Capa_2" data-name="Capa 2"><text class="cls-1" transform="translate(151.68 95.42)"><tspan xml:space="preserve"> EST</tspan></text><text class="cls-2" transform="translate(109.04 124.33)">integración estadística</text><path class="cls-3" d="M434.5,109.75a202.21,202.21,0,0,1-28.25-5.49,206.86,206.86,0,0,1-73.11-37.73c-15.22-12.41-30.95-25.76-46.76-37.18C263.8,13.05,241-.42,219.31-.42A72.53,72.53,0,0,0,193.19,4.1c-13.54,4.82-29,15.18-62,42.15C122.45,53.36,112.5,60.44,101,69.88a144.33,144.33,0,0,1-20.7,14.51C55,98.72,26.84,105.93,2,109.62a2.31,2.31,0,0,0-2,2.29H0a2.31,2.31,0,0,0,2.45,2.31,63.42,63.42,0,0,0,8.41-.82c10.35-2.23,28.09-5.58,45.83-12.28,20.66-7.79,44.93-24.54,50.26-29C120.26,61,142.15,43.27,157.54,32c22.65-16.57,39.59-28,61.77-28,12.31,0,20.33,3.57,29.09,7.83,11.22,5.46,23,12.9,38.91,24.35,22.32,16,46.16,39.42,69.48,52.63,21.48,12.17,38.61,20.06,68,23.43,3,.35,6.15.65,9.34.9a1.73,1.73,0,0,0,.37-3.43Z"/><path class="cls-3" d="M170.83,39.37h0s-.55-2.36-3.93-3.19a4.4,4.4,0,0,0-4.35,1,13.09,13.09,0,0,0-2.17,2.79,12.33,12.33,0,0,0-1,2.51,26.43,26.43,0,0,0-.88,5l-.09,1.08-.24,5L158,56.71c0,.23,0,.46,0,.68V90l.24,5.21a5.86,5.86,0,0,1-.24,1.67c-.25.63-.9.25-.9.25h0A3.86,3.86,0,0,0,150,99.33a3.79,3.79,0,0,0,.6,2h0a4.16,4.16,0,0,0,2.3,2.21A6.78,6.78,0,0,0,161.83,99c.59-2.23,1.19-5.17,1.38-6.14,0-.21.07-.43.09-.64.07-.84.26-3.18.46-4.7s.24-5.43.24-5.43l.24-6.47L164,52.25l-.63-9.51h0a4.36,4.36,0,0,0,3.41,1.59A4.06,4.06,0,0,0,171,40.45,3.59,3.59,0,0,0,170.83,39.37Z"/><rect class="cls-3" x="330" y="118.38" width="106" height="2.24" rx="1.12"/><rect class="cls-3" y="118.38" width="106" height="2.24" rx="1.12"/></g></svg>